<svg width="77" height="47" viewBox="0 0 77 47" fill="none" xmlns="http://www.w3.org/2000/svg">
      <path
            d="M7.22647 1.30728C7.62023 0.603753 8.52028 0.404199 9.23679 0.86157L20.913 8.31487C21.6295 8.77224 21.8912 9.71334 21.4974 10.4169C21.1036 11.1204 20.2036 11.32 19.4871 10.8626L9.10822 4.23743L3.40447 14.4283C3.01071 15.1318 2.11066 15.3314 1.39415 14.874C0.677632 14.4166 0.415995 13.4755 0.809757 12.772L7.22647 1.30728ZM74.8329 46.5104L73.4282 46.8822C70.128 36.4768 65.322 31.5516 59.9455 29.0902C54.4102 26.5561 48.0508 26.505 41.3022 26.4259C34.7114 26.3486 27.7256 26.245 21.6191 23.1659C15.3628 20.0113 10.2839 13.8944 7.10232 2.4506L8.52383 2.13543L9.94534 1.82026C12.9536 12.6407 17.5545 17.8312 22.7622 20.4571C28.1196 23.1585 34.3818 23.3083 41.1172 23.3873C47.6948 23.4644 54.7396 23.4722 60.9807 26.3295C67.3806 29.2594 72.7232 35.058 76.2376 46.1387L74.8329 46.5104Z"
            fill="#8257E5" />
</svg>
      