<svg width="44" height="45" viewBox="0 0 44 45" fill="none" xmlns="http://www.w3.org/2000/svg">
<path d="M18.3436 20.4688L25.9303 20.4688L23.0053 17.5438L25.6561 14.9845L32.9686 22.2969L25.6561 29.6094L23.0053 27.05L25.9303 24.125H18.3436V20.4688ZM5.54679 9.50011C5.54679 8.49464 5.89718 7.62629 6.59796 6.89504C7.32921 6.19426 8.19756 5.84387 9.20303 5.84387L34.7967 5.84387C35.8021 5.84387 36.6553 6.19426 37.356 6.89504C38.0873 7.62629 38.4529 8.49464 38.4529 9.50011V35.0937C38.4529 36.0992 38.0873 36.9523 37.356 37.6531C36.6553 38.3844 35.8021 38.75 34.7967 38.75L9.20303 38.75C8.19756 38.75 7.32921 38.3844 6.59796 37.6531C5.89718 36.9523 5.54679 36.0992 5.54679 35.0937V9.50011ZM9.20303 9.50011L9.20303 35.0937L14.6874 35.0937L14.6874 29.6094C13.5296 28.6953 12.6307 27.5985 11.9909 26.3188C11.3511 25.0696 11.0311 23.729 11.0311 22.2969C11.0311 20.8649 11.3511 19.5091 11.9909 18.2294C12.6307 16.9802 13.5296 15.8985 14.6874 14.9845V9.50011H9.20303ZM14.6874 22.2969C14.6874 23.4547 15.0225 24.5059 15.6928 25.4504C16.3632 26.395 17.2467 27.05 18.3436 27.4157L18.3436 35.0937H34.7967V9.50011L18.3436 9.50011V17.1782C17.2467 17.5438 16.3632 18.1989 15.6928 19.1434C15.0225 20.088 14.6874 21.1391 14.6874 22.2969ZM9.20303 9.50011V14.9845C9.20303 15.8985 9.20303 16.9802 9.20303 18.2294C9.20303 19.5091 9.20303 20.8649 9.20303 22.2969C9.20303 23.729 9.20303 25.0696 9.20303 26.3188C9.20303 27.5985 9.20303 28.6953 9.20303 29.6094L9.20303 35.0937L9.20303 9.50011Z" fill="white"/>
</svg>
