<svg width="26" height="24" viewBox="0 0 26 24" fill="none" xmlns="http://www.w3.org/2000/svg">
<path d="M12.652 14.4795C13.9149 14.4795 14.9387 13.4963 14.9387 12.2835C14.9387 11.0707 13.9149 10.0875 12.652 10.0875C11.3891 10.0875 10.3654 11.0707 10.3654 12.2835C10.3654 13.4963 11.3891 14.4795 12.652 14.4795Z" fill="#61DAFB"/>
<path d="M13 16.335C19.6274 16.335 25 14.3942 25 12C25 9.60589 19.6274 7.66504 13 7.66504C6.37258 7.66504 1 9.60589 1 12C1 14.3942 6.37258 16.335 13 16.335Z" stroke="#61DAFB"/>
<path d="M9.03208 14.1675C12.3458 19.5978 16.8086 23.0296 19 21.8325C21.1915 20.6354 20.2817 15.2628 16.968 9.83249C13.6543 4.40216 9.1915 0.970424 7.00005 2.1675C4.8086 3.36458 5.71837 8.73716 9.03208 14.1675Z" stroke="#61DAFB"/>
<path d="M9.03208 9.83257C5.71837 15.2629 4.8086 20.6355 7.00005 21.8326C9.1915 23.0296 13.6543 19.5979 16.968 14.1676C20.2817 8.73724 21.1915 3.36466 19 2.16758C16.8086 0.970502 12.3458 4.40223 9.03208 9.83257Z" stroke="#61DAFB"/>
</svg>
